<svg width="194" height="178" viewBox="0 0 194 178" fill="none" xmlns="http://www.w3.org/2000/svg">
<path d="M55.1996 160.675H22.8948L22.2421 97.3703H64.01V146.317L55.8227 159.66L55.1996 160.675Z" fill="#E6E6E6"/>
<path opacity="0.1" d="M55.3203 97.3703H64.01V146.317L55.8227 159.66L55.3203 97.3703Z" fill="black"/>
<path d="M46.7155 108.791L43.1262 111.075H35.2945L32.0314 108.791H46.7155Z" fill="#3F3D56"/>
<path d="M46.7155 118.254L43.1262 120.538H35.2945L32.0314 118.254H46.7155Z" fill="#3F3D56"/>
<path d="M46.7155 131.633L43.1262 133.917H35.2945L32.0314 131.633H46.7155Z" fill="#3F3D56"/>
<path d="M150.809 161.98H183.114L183.766 98.6757H141.999V147.622L150.186 160.965L150.809 161.98Z" fill="#E6E6E6"/>
<path opacity="0.1" d="M150.688 98.6757H141.999V147.622L150.186 160.965L150.688 98.6757Z" fill="black"/>
<path d="M18 95.0861L34.3155 86.602H179.198L193.556 96.3916V99.3282H18V95.0861Z" fill="#E6E6E6"/>
<path opacity="0.1" d="M18 95.0861L193.556 96.3916V99.3282H18V95.0861Z" fill="black"/>
<path d="M159.293 110.096L162.882 112.381H170.714L173.977 110.096H159.293Z" fill="#3F3D56"/>
<path d="M159.293 119.56L162.882 121.844H170.714L173.977 119.56H159.293Z" fill="#3F3D56"/>
<path d="M159.293 132.938L162.882 135.223H170.714L173.977 132.938H159.293Z" fill="#3F3D56"/>
<path d="M159.293 146.317L162.882 148.601H170.714L173.977 146.317H159.293Z" fill="#3F3D56"/>
<path d="M168.216 30H102.285C101.958 30 101.634 30.0644 101.331 30.1897C101.028 30.315 100.754 30.4987 100.522 30.7302C100.291 30.9618 100.107 31.2366 99.9816 31.5392C99.8563 31.8417 99.7918 32.166 99.7919 32.4934V76.9058C99.7918 77.2332 99.8563 77.5575 99.9816 77.86C100.107 78.1625 100.291 78.4374 100.522 78.669C100.754 78.9005 101.028 79.0842 101.331 79.2095C101.634 79.3347 101.958 79.3992 102.285 79.3992H127.313L126.375 85.3857C126.375 85.3857 121.017 88.2324 124.784 88.3161C128.552 88.3999 146.302 88.3161 146.302 88.3161C146.302 88.3161 149.735 88.3161 144.293 85.302L143.411 79.3992H168.216C168.543 79.3992 168.867 79.3347 169.17 79.2095C169.472 79.0842 169.747 78.9005 169.979 78.669C170.21 78.4374 170.394 78.1625 170.519 77.86C170.645 77.5575 170.709 77.2332 170.709 76.9058V32.4934C170.709 32.166 170.645 31.8417 170.519 31.5392C170.394 31.2366 170.21 30.9618 169.979 30.7302C169.747 30.4987 169.472 30.315 169.17 30.1897C168.867 30.0644 168.543 30 168.216 30V30Z" fill="#3F3D56"/>
<path d="M168.323 32.6374H102.178V69.6449H168.323V32.6374Z" fill="#F2F2F2"/>
<path d="M135.25 31.8839C135.482 31.8839 135.669 31.6964 135.669 31.4652C135.669 31.234 135.482 31.0466 135.25 31.0466C135.019 31.0466 134.832 31.234 134.832 31.4652C134.832 31.6964 135.019 31.8839 135.25 31.8839Z" fill="#F2F2F2"/>
<path d="M135.25 77.599C136.129 77.599 136.841 76.8868 136.841 76.0082C136.841 75.1296 136.129 74.4174 135.25 74.4174C134.372 74.4174 133.66 75.1296 133.66 76.0082C133.66 76.8868 134.372 77.599 135.25 77.599Z" fill="#F2F2F2"/>
<path d="M87.7262 93.0049L87.7881 92.8374L88.8983 89.8233H131.85L132.771 92.8374V93.6748H87.7262V93.0049Z" fill="#3F3D56"/>
<path d="M150.106 92.0177C150.024 92.3686 149.714 92.7386 149.015 93.0886C146.503 94.3445 141.395 92.7537 141.395 92.7537C141.395 92.7537 137.46 92.0839 137.46 90.3256C137.571 90.2499 137.686 90.1814 137.805 90.1205C138.861 89.5618 142.363 88.1831 148.571 90.1789C149.029 90.3224 149.437 90.5902 149.751 90.9522C149.89 91.0891 149.995 91.2571 150.057 91.4423C150.119 91.6275 150.136 91.8247 150.106 92.0177Z" fill="#3F3D56"/>
<path opacity="0.1" d="M150.106 92.0177C147.032 93.1958 144.291 93.2837 141.479 91.3303C140.416 90.5441 139.128 90.12 137.805 90.1205C138.861 89.5618 142.363 88.1831 148.571 90.1789C149.029 90.3224 149.437 90.5902 149.751 90.9522C149.89 91.0891 149.995 91.2571 150.057 91.4423C150.119 91.6275 150.136 91.8247 150.106 92.0177V92.0177Z" fill="black"/>
<path d="M146.252 91.3303C146.853 91.3303 147.34 91.1804 147.34 90.9954C147.34 90.8105 146.853 90.6605 146.252 90.6605C145.65 90.6605 145.163 90.8105 145.163 90.9954C145.163 91.1804 145.65 91.3303 146.252 91.3303Z" fill="#F2F2F2"/>
<path opacity="0.1" d="M87.7262 153.005L87.7881 152.837H132.771V153.675H87.7262V153.005Z" fill="black"/>
<path d="M46.7155 145.012L43.1262 147.296H35.2945L32.0314 145.012H46.7155Z" fill="#3F3D56"/>
<path d="M64.5244 118.58L59.3468 119.189L60.2604 133.199L67.2658 130.153L64.5244 118.58Z" fill="#ECB798"/>
<path d="M67.2657 127.717C67.2657 127.717 62.6971 126.194 60.5651 130.762C58.4331 135.331 59.3468 136.549 59.3468 136.549C59.3468 136.549 66.352 138.986 67.5703 137.768C68.1003 137.237 69.7834 137.053 71.5159 137.014C74.1546 136.955 74.8566 133.222 72.3646 132.353C72.2902 132.327 72.215 132.304 72.1388 132.285C69.7022 131.676 67.2657 127.717 67.2657 127.717V127.717Z" fill="#2F2E41"/>
<path d="M56.1057 119.712C54.5828 119.712 56.7148 113.925 56.7148 113.925C54.6783 105.363 56.1057 100 51.5 92C46.8943 84 62.5 86 62.5 86C63.1091 86.6091 67 104 66.7657 114.838C66.5314 125.677 57.6286 119.712 56.1057 119.712Z" fill="#2F2E41"/>
<path d="M18.2298 150.864H12.4428L13.6612 167.616H20.057L18.2298 150.864Z" fill="#ECB798"/>
<path d="M10.0063 110.356C8.17883 104.569 7.87427 86.9041 7.87427 86.9041L37.9547 73.8804C37.9547 73.8804 43.5091 75.3304 47.4686 76.5487C51.428 77.7669 61.0017 83.5767 62 84.5C62.9983 85.4233 63.5 87 63.5 88.5C63.5 90 54 94 54 94C54 94 53.0722 94.5 51.7687 94.8229C50.4653 95.1459 35.2857 94.8229 35.2857 94.8229L27.3669 103.96L23.1029 121.321C23.1029 121.321 21.2754 146.296 20.0571 147.514C18.8389 148.732 21.58 149.341 21.2754 151.169C20.9708 152.996 12.4428 153.301 10.6154 152.996C8.78799 152.692 11.2246 149.037 10.6154 146.905C10.0063 144.773 10.6154 120.712 10.6154 119.189C10.6154 117.666 10.92 118.275 11.2246 117.361C11.5291 116.448 11.8337 116.143 10.0063 110.356Z" fill="#2F2E41"/>
<path d="M12.8648 165.402C12.1304 166.4 12.2776 167.826 11.627 168.881C11.0631 169.795 10.0003 170.275 9.29488 171.085C9.0698 171.354 8.86915 171.643 8.69529 171.947C8.04095 173.043 7.50909 174.448 8.15353 175.55C8.67194 176.436 9.76163 176.783 10.761 177.019C12.0241 177.317 13.3365 177.556 14.6143 177.328C15.892 177.1 17.1407 176.318 17.5963 175.102C17.6858 174.797 17.7923 174.496 17.9151 174.203C18.6077 172.839 20.7799 172.824 21.4887 171.469C21.9847 170.521 21.5287 169.375 21.073 168.407L19.681 165.449C19.219 164.468 17.3464 165.032 16.3701 164.797C15.0969 164.491 13.7808 164.153 12.8648 165.402V165.402Z" fill="#2F2E41"/>
<path d="M21.7323 20.0506C21.7323 20.0506 22.646 27.6649 19.2957 28.2741C15.9454 28.8832 22.3414 39.2387 22.3414 39.2387L37.57 41.0661L33.9151 28.8832C33.9151 28.8832 31.4786 27.9695 33.0014 21.8781C34.5243 15.7866 21.7323 20.0506 21.7323 20.0506V20.0506Z" fill="#ECB798"/>
<path d="M16.7068 32.0812C16.7068 32.0812 31.6308 35.1269 35.2857 30.2538C38.9405 25.3806 40.4634 43.9595 40.4634 43.9595L42.2908 63.4521L39.5497 74.1121C39.5497 74.1121 25.2348 85.6858 20.6662 86.5995C16.0977 87.5132 9.09253 88.1224 9.09253 88.1224C9.09253 88.1224 11.2245 54.3149 11.2245 53.7058C11.2245 53.0966 16.7068 32.0812 16.7068 32.0812Z" fill="#7C89A9"/>
<path d="M21.2456 26.3691C21.2456 26.3691 17.9251 24.4669 17.0114 26.2944C16.0977 28.1218 7.56968 32.6904 6.65597 32.6904C5.74225 32.6904 8.4834 57.9698 7.26511 61.0155C6.04682 64.0612 0.259967 86.2949 3.61025 88.1224C6.96054 89.9498 4.52397 86.2949 7.87425 90.8635C11.2245 95.4321 27.6714 95.4321 28.5851 93.6046C29.4988 91.7772 21.2754 78.0715 22.7983 65.2795C24.3211 52.4875 26.7577 34.8224 24.6257 32.3858C22.4937 29.9492 21.2456 26.3691 21.2456 26.3691V26.3691Z" fill="#2F2E41"/>
<path d="M32.24 28.4264L32.6642 26.9664C32.6642 26.9664 45.3366 31.1675 45.9457 33.9086C46.5549 36.6498 46.2503 55.8378 44.1183 57.3607C41.9863 58.8835 38.9406 61.3201 41.0726 64.9749C43.2046 68.6298 45.6411 72.5892 47.4686 72.8938C49.296 73.1984 52.6463 75.3304 51.7326 77.4624C50.8189 79.5943 39.8543 75.6349 39.8543 75.6349C39.8543 75.6349 32.5446 70.1526 32.8491 61.6246C33.1537 53.0966 32.24 28.4264 32.24 28.4264Z" fill="#2F2E41"/>
<path d="M42.9 64.3658L35.5903 78.0715C35.5903 78.0715 24.9303 89.0361 31.0217 90.2544C37.1131 91.4726 40.4634 80.2035 40.4634 80.2035L48.3823 68.9344L42.9 64.3658Z" fill="#ECB798"/>
<path d="M42.9 32.6904L45.7377 33.4436C45.7377 33.4436 52.3417 50.3555 50.8188 61.9292C49.296 73.5029 48.3823 71.0664 48.3823 71.0664C48.3823 71.0664 45.9457 65.5841 40.4634 66.8024L42.9 32.6904Z" fill="#2F2E41"/>
<path d="M2.69656 70.4572L15.4886 90.2544C15.4886 90.2544 23.4074 100.305 25.844 95.7367C28.2806 91.1681 17.316 83.5538 17.316 83.5538L9.09256 68.3252L2.69656 70.4572Z" fill="#ECB798"/>
<path d="M9.09254 33.2995L6.65598 32.6904C6.65598 32.6904 1.78283 34.2132 0.564548 40.6092C-0.653736 47.0052 0.259975 72.5892 1.78283 72.8938C3.30569 73.1984 9.30421 68.4391 10.2644 69.4482C11.2246 70.4572 8.17883 65.2795 9.09254 62.5384C10.0062 59.7972 9.09254 33.2995 9.09254 33.2995Z" fill="#2F2E41"/>
<path d="M28.5851 25.0761C33.6314 25.0761 37.7223 20.9852 37.7223 15.9389C37.7223 10.8926 33.6314 6.80179 28.5851 6.80179C23.5388 6.80179 19.448 10.8926 19.448 15.9389C19.448 20.9852 23.5388 25.0761 28.5851 25.0761Z" fill="#ECB798"/>
<path d="M26.7015 0.0394965C26.2444 0.00196274 24.3234 0.835805 23.9257 1.06431C23.5352 1.33176 21.7874 2.99392 21.5361 3.42991C20.5755 5.1168 22.1243 4.58357 20.5664 5.74162C19.4316 6.57294 18.1814 9.4192 18.3755 10.9519C18.478 11.4581 17.6253 12.906 17.8891 13.35C18.9359 15.4633 21.0995 14.5936 20.8185 17.0049C21.8586 15.2637 20.4674 14.4028 21.5075 12.6616C22.0028 11.8324 22.8633 10.8964 23.6111 11.4171C23.8615 11.5915 24.0259 11.9042 24.2866 12.0572C24.9087 12.4222 25.5705 11.7243 26.1212 11.23C28.0201 9.52538 30.7205 9.97195 33.0834 10.5031C34.199 10.7538 35.4243 11.0828 36.0837 12.149C36.9507 13.5508 35.2599 15.0648 34.8327 16.6497C34.6821 17.2332 35.1602 17.7877 35.7596 17.7244C36.4686 17.6545 37.3085 17.5972 37.3504 17.286C38.2425 17.3178 39.3355 17.2168 39.7177 16.2879C39.8346 15.9204 39.8963 15.5376 39.901 15.152C40.0413 13.5917 39.7794 12.0142 40.2181 10.5292C40.6568 9.04413 39.8464 6.26415 39.1061 4.94751C38.8419 4.50944 36.3974 2.80314 36.0184 2.45949C31.355 -0.489672 31.9919 0.0334614 26.7015 0.0394965V0.0394965Z" fill="#2F2E41"/>
<path d="M25.491 2.62273C25.1227 2.59544 24.7538 2.66699 24.4224 2.82999C24.1228 3.04881 23.8758 3.33182 23.6996 3.65832C22.8872 4.88031 21.8283 5.9189 20.5907 6.70738C19.667 7.29496 18.4925 8.02758 18.6506 9.11091C18.7364 9.47413 18.8891 9.8182 19.1008 10.1255C19.956 11.6342 18.0906 16.9993 19.9327 17.7192C19.9327 17.7192 20.1253 13.2855 22.6106 11.4079C24.833 9.72886 20.8101 14.2189 21.4746 13.8893C22.7734 13.245 24.6607 10.8725 24.8729 10.9807C25.3793 11.2387 22.7327 13.7604 23.181 13.411C24.7268 12.2062 29.6688 8.79926 26.5756 13.2029C26.2227 14.0423 33.1258 10.7598 32.4498 11.3915C30.4751 13.237 33.5124 10.922 33.695 12.556C33.9894 12.3498 36.0993 13.5586 36.1564 13.2037C36.8826 13.2261 37.1234 14.6274 37.4345 13.9709C37.5291 13.7136 37.5796 13.4422 37.5837 13.1681C37.6979 12.0652 38.2369 11.0592 38.5941 10.0095C38.9512 8.95993 39.1065 7.72985 38.5038 6.79925C38.2833 6.48394 38.0172 6.20313 37.7142 5.96603C34.2942 3.09236 29.7975 2.61846 25.491 2.62273V2.62273Z" fill="#2F2E41"/>
</svg>
